<svg xmlns="http://www.w3.org/2000/svg" xmlns:xlink="http://www.w3.org/1999/xlink" fill="none" version="1.1" width="188" height="28.409090042114258" viewBox="0 0 188 28.409090042114258"><g><path d="M57.964,15.63L54.376,16.566L53.83,20.518Q53.7,21.272,53.128,21.753Q52.556,22.234,51.802,22.234L46.888,22.234L49.202,19.842L49.488,17.866L46.68,18.594L47.07,15.864L49.878,15.136L50.424,11.184L47.72,11.184L48.084,8.714L50.788,8.714L50.996,7.102L48.734,7.466L49.098,4.996L58.198,3.514L57.834,5.984L55.832,6.322L55.494,8.714L60.096,8.714L59.316,4.242L58.692,3.514L63.632,3.514L64.542,8.714L69.56,8.714L69.196,11.184L64.958,11.184L65.478,14.122L69.04,12.406L68.572,15.63L65.946,16.878L66.388,19.322L67.324,19.322L68.468,18.334L67.896,22.234L62.462,22.234L61.864,18.828L57.73,20.804L58.198,17.58L61.37,16.072L60.512,11.184L55.13,11.184L54.766,13.836L58.354,12.9L57.964,15.63ZM69.482,7.466L65.036,7.466L64.542,4.008L68.988,4.008L69.482,7.466ZM84.874,5.49L84.016,4.502L93.896,4.502L91.4,22.234L82.508,22.234L84.874,5.49ZM77.49,4.996L83.47,4.996L83.106,7.466L81.364,7.466L79.856,10.924L83.132,10.924L82.768,13.394L78.764,13.394L78.322,14.382L80.168,14.382L82.014,22.234L77.568,22.234L76.632,18.23L74.864,22.234L70.158,22.234L74.058,13.394L70.912,13.394L71.276,10.924L75.15,10.924L76.684,7.466L76.242,7.466L75.488,8.948L71.536,8.948L73.928,4.242L73.304,3.514L78.244,3.514L77.49,4.996ZM87.812,19.816L89.606,6.972L88.618,6.972L86.824,19.816L87.812,19.816ZM107.416,8.454L107.806,7.726L102.84,7.726L103.152,5.49L104.816,5.49L104.634,4.918L103.854,4.008L108.794,4.008L109.236,5.49L111.914,5.49L112.356,4.71L111.758,4.008L117.192,4.008L116.36,5.49L117.478,5.49L117.166,7.726L111.238,7.726L110.848,8.454L116.568,8.454L115.19,18.334L101.852,18.334L103.23,8.454L107.416,8.454ZM94.442,21.792L95.768,19.322L97.016,10.43L96.028,10.43L96.392,7.96L101.826,7.96L100.37,18.256L103.932,19.322L116.022,19.322L115.684,21.792L101.852,21.792L99.304,21.038L98.888,21.792L94.442,21.792ZM100.89,4.008L101.956,6.972L98.004,6.972L96.938,4.008L100.89,4.008ZM105.674,13.888L112.616,13.888L112.746,12.9L105.804,12.9L105.674,13.888ZM106.064,11.158L113.006,11.158L113.136,10.196L106.194,10.196L106.064,11.158ZM112.226,16.592L112.356,15.63L105.414,15.63L105.284,16.592L112.226,16.592ZM140.41,4.008L140.072,6.478L131.544,10.924L130.192,20.518Q130.088,21.272,129.516,21.753Q128.944,22.234,128.19,22.234L123.042,22.234L125.356,19.816L126.682,10.43L134.222,6.478L119.324,6.478L119.662,4.008L140.41,4.008Z" fill="#FFFFFF" fill-opacity="1"/></g></svg>