<svg xmlns="http://www.w3.org/2000/svg" xmlns:xlink="http://www.w3.org/1999/xlink" fill="none" version="1.1" width="144" height="20" viewBox="0 0 144 20"><defs><linearGradient x1="0" y1="0.5" x2="1" y2="0.5" id="master_svg0_1_1251"><stop offset="0%" stop-color="#FFAA00" stop-opacity="1"/><stop offset="100%" stop-color="#FFAA00" stop-opacity="0.1599999964237213"/></linearGradient></defs><g><g><rect x="0" y="14" width="142" height="6" rx="3" fill="url(#master_svg0_1_1251)" fill-opacity="1"/></g><g><path d="M3.6,2.96Q3.816,2.24,4.806,2.456Q5.796,2.672,5.526,3.374L4.356,6.434L4.356,18.224Q4.356,18.962,3.366,19.034Q2.394,19.124,2.394,18.386L2.394,10.124Q1.872,10.97,1.746,11.078Q1.296,11.69,0.774,10.592Q0.252,9.476,0.72,8.846Q1.332,8.126,2.268,6.218Q3.222,4.274,3.6,2.96ZM10.908,10.304L10.908,15.848Q10.908,16.19,11.16,15.956Q12.132,15.092,12.96,13.58Q12.276,11.888,11.898,9.854L11.646,10.268Q11.268,10.61,10.926,10.34L10.908,10.304ZM8.694,14.768Q9.036,14.75,9.036,14.408L9.036,12.032Q9.036,11.69,8.694,11.708L7.524,11.816Q7.182,11.852,7.182,12.194L7.182,14.912L8.694,14.768ZM14.76,6.362L13.248,6.488L13.086,7.028Q13.356,9.296,13.932,11.132Q14.508,9.17,14.76,6.362ZM16.686,4.4Q17.424,4.328,17.424,5.228Q17.424,6.128,16.56,6.2Q16.128,10.736,14.94,13.454Q15.984,15.218,16.902,15.686Q17.496,16.064,16.848,16.964Q16.218,17.864,15.642,17.45Q14.796,16.928,13.878,15.416Q12.852,17.018,11.844,17.738Q11.178,18.296,10.62,17.72L10.386,17.468Q10.17,16.982,10.512,16.514L10.62,16.424L7.182,16.73L7.182,17.27Q7.182,18.008,6.264,18.089Q5.346,18.17,5.346,17.432L5.346,11.06Q5.346,10.196,6.21,10.124L7.146,10.034L7.146,7.1L5.814,7.208Q5.076,7.28,5.076,6.326Q5.076,5.354,5.814,5.282L7.146,5.174L7.146,2.888Q7.146,2.15,8.154,2.06Q9.162,1.97,9.162,2.708L9.162,4.994L10.296,4.904Q11.034,4.832,11.034,5.804Q11.034,6.758,10.296,6.83L9.162,6.92L9.162,9.854L10.188,9.764Q10.53,9.746,10.332,9.494L10.08,9.188Q11.718,6.722,12.294,2.204Q12.402,1.466,13.356,1.547Q14.31,1.628,14.184,2.366L13.752,4.652L16.686,4.4ZM35.316,9.548Q35.316,10.574,34.578,10.628L30.816,10.952L30.816,15.56L34.398,15.254Q35.136,15.182,35.136,16.208Q35.136,17.234,34.398,17.306L25.218,18.116Q24.48,18.17,24.48,17.144Q24.48,16.118,25.218,16.064L28.638,15.758L28.638,11.15L24.498,11.51Q23.76,11.582,23.76,10.556Q23.76,9.512,24.498,9.44L28.638,9.08L28.638,5.084Q27.198,5.462,25.632,5.804Q24.894,5.93,24.588,5.084Q24.282,4.202,25.002,4.04Q30.096,2.906,32.616,1.736Q33.318,1.448,34.092,2.294Q34.884,3.122,34.182,3.356L30.816,4.49L30.816,8.882L34.578,8.558Q35.316,8.504,35.316,9.548ZM23.868,2.42Q24.93,2.654,24.624,3.338L23.166,6.47L23.166,18.152Q23.166,18.89,22.086,18.98Q21.024,19.07,21.024,18.332L21.024,9.854Q20.178,10.988,20.07,11.06Q19.566,11.636,18.936,10.574Q18.306,9.494,18.828,8.936Q19.656,8.144,20.862,6.182Q22.068,4.22,22.536,2.888Q22.806,2.168,23.868,2.42ZM45.432,11.69L51.066,11.204Q51.966,11.114,51.84,12.212Q51.3,16.28,50.346,17.198Q49.698,17.864,48.438,18.026Q47.25,18.206,46.17,18.224Q45.432,18.278,45.09,17.396Q44.766,16.496,45.504,16.496Q46.134,16.496,47.772,16.37Q48.384,16.316,48.636,16.082Q49.23,15.56,49.554,13.472Q49.608,13.148,49.266,13.166L44.802,13.562Q43.902,15.56,42.3,16.892Q40.698,18.224,38.898,18.854Q38.196,19.124,37.566,18.296Q36.954,17.468,37.656,17.234Q40.986,16.298,42.444,13.76L38.88,14.084Q38.142,14.138,38.142,13.238Q38.142,12.32,38.88,12.266L43.236,11.888L43.398,11.06Q43.524,10.322,44.622,10.322Q45.738,10.304,45.576,11.042L45.432,11.69ZM42.372,5.588Q42.03,5.606,42.282,5.804Q43.128,6.632,45,7.208Q47.322,6.128,48.42,5.138Q48.69,4.922,48.348,4.958L42.372,5.588ZM50.094,2.924Q50.832,2.87,51.498,3.23Q52.182,3.608,51.732,4.202Q50.652,5.984,47.7,7.748L52.704,7.964Q53.442,7.928,52.848,8.918Q52.254,9.908,51.516,9.908Q47.898,9.98,45.018,9.152Q41.832,10.52,38.358,11.24Q37.638,11.402,37.224,10.502Q36.81,9.602,37.53,9.458Q39.924,9.08,42.534,8.162L40.644,6.83Q39.546,7.712,39.258,7.838Q38.61,8.252,37.98,7.478Q37.368,6.704,38.016,6.308Q40.878,4.814,42.084,2.582Q42.498,1.952,43.578,2.096Q44.676,2.222,44.262,2.852L43.794,3.572L50.094,2.924ZM57.024,4.958Q56.682,4.994,56.682,5.336L56.682,13.454Q56.682,14.192,55.926,14.255Q55.17,14.318,55.17,13.58L55.17,4.202Q55.17,3.338,56.034,3.266L60.264,2.888Q61.128,2.816,61.128,3.68L61.128,12.986Q61.128,13.706,60.336,13.778Q59.562,13.85,59.562,13.112L59.562,5.084Q59.562,4.742,59.22,4.76L57.024,4.958ZM58.23,5.984Q58.914,5.93,58.914,6.614L58.914,10.772Q58.914,11.906,58.788,12.878Q58.68,13.85,58.338,15.002Q58.014,16.136,57.294,17.18Q56.592,18.206,56.124,18.53Q55.548,19.016,54.99,18.494Q54.45,17.972,55.044,17.486Q55.404,17.306,56.016,16.424Q56.646,15.524,56.916,14.516Q57.186,13.472,57.276,12.671Q57.366,11.87,57.366,10.88L57.366,6.92Q57.366,6.056,58.23,5.984ZM58.698,15.722Q58.32,15.146,58.932,14.696Q59.544,14.246,59.958,14.804L60.66,15.74Q61.074,16.298,60.426,16.838Q59.796,17.342,59.4,16.748L58.698,15.722ZM65.574,11.798L66.528,11.726L66.528,10.808L65.574,10.88L65.574,11.798ZM65.574,8.396L65.574,9.242L66.528,9.17L66.528,8.324L65.574,8.396ZM65.574,5.876L65.574,6.776L66.528,6.704L66.528,5.804L65.574,5.876ZM69.03,8.45Q69.03,8.108,68.688,8.126L68.076,8.18L68.076,9.026L69.03,8.954L69.03,8.45ZM68.688,11.528Q69.03,11.51,69.03,11.168L69.03,10.592L68.076,10.664L68.076,11.582L68.688,11.528ZM70.506,12.14Q70.506,13.004,69.642,13.076L68.58,13.166Q69.858,15.128,70.758,15.578Q71.334,15.974,70.704,16.721Q70.074,17.468,69.552,17Q69.012,16.622,68.076,15.218L68.076,17.342Q68.076,18.08,67.302,18.152Q66.528,18.224,66.528,17.486L66.528,13.346L65.574,13.418L65.574,17.54Q65.574,18.278,64.782,18.35Q64.008,18.422,64.008,17.684L64.008,15.668Q63,17.36,62.514,17.738Q61.974,18.278,61.344,17.63Q60.714,16.982,61.29,16.478Q62.298,15.776,63.486,13.616L62.928,13.652Q62.19,13.724,62.19,12.914Q62.19,12.104,62.928,12.032L64.008,11.942L64.008,11.024L62.316,11.168Q61.578,11.24,61.578,10.43Q61.578,9.602,62.316,9.53L64.008,9.386L64.008,8.54L63,8.63Q62.262,8.702,62.262,7.892Q62.262,7.082,63,7.01L64.008,6.92L64.008,6.02L62.532,6.146Q61.794,6.218,61.794,5.39Q61.794,4.562,62.532,4.49L63.792,4.382L63.054,3.14Q62.694,2.528,63.414,2.132Q64.152,1.718,64.53,2.33L65.16,3.302Q65.268,3.842,64.872,4.274L64.854,4.292L66.762,4.13L67.77,1.988Q68.094,1.304,69.012,1.565Q69.93,1.826,69.516,2.474L68.544,3.968L70.344,3.806Q71.082,3.752,71.082,4.58Q71.082,5.408,70.344,5.462L68.076,5.66L68.076,6.56L69.642,6.434Q70.506,6.362,70.506,7.226L70.506,8.828L70.902,8.99Q71.262,9.584,70.758,10.16L70.506,10.466L70.506,12.14ZM77.886,9.872Q78.588,9.638,78.714,10.592Q78.858,11.546,78.156,11.798L76.914,12.266L76.914,16.676Q76.914,17.468,76.734,17.9Q76.572,18.35,76.14,18.602Q75.456,19.052,74.178,19.142Q73.44,19.232,73.134,18.278Q72.846,17.342,73.584,17.288Q73.548,17.306,74.502,17.234Q74.844,17.198,74.844,16.856L74.844,13.022L73.638,13.436Q72.936,13.67,72.666,12.698Q72.396,11.69,73.116,11.456L74.844,10.916L74.844,7.676L73.422,7.802Q72.684,7.856,72.684,6.866Q72.684,5.858,73.422,5.804L74.844,5.678L74.844,3.05Q74.844,2.312,75.87,2.222Q76.914,2.132,76.914,2.87L76.914,5.498L77.904,5.408Q78.642,5.336,78.642,6.344Q78.642,7.334,77.904,7.406L76.914,7.496L76.914,10.214L77.886,9.872ZM84.96,14.84L86.58,14.696Q86.922,14.66,86.922,14.318L86.922,11.87L84.96,12.05L84.96,14.84ZM81.108,12.374L81.108,14.822Q81.108,15.164,81.45,15.146L82.944,15.02L82.944,12.23L81.108,12.374ZM82.944,7.622L81.45,7.748Q81.108,7.766,81.108,8.108L81.108,10.376L82.944,10.232L82.944,7.622ZM86.922,7.604Q86.922,7.262,86.58,7.298L84.96,7.442L84.96,10.052L86.922,9.872L86.922,7.604ZM84.96,5.408L88.182,5.12Q89.046,5.048,89.046,5.912L89.046,15.668Q89.046,16.532,88.182,16.604L79.92,17.324Q79.056,17.396,79.056,16.532L79.056,6.776Q79.056,5.912,79.92,5.84L82.944,5.588L82.944,2.348Q82.944,1.61,83.952,1.52Q84.96,1.43,84.96,2.168L84.96,5.408ZM93.87,5.03Q94.158,5.696,93.312,6.254Q92.466,6.794,92.124,6.182L91.314,4.814Q90.972,4.202,91.764,3.698Q92.556,3.194,93.078,3.698Q93.744,4.598,93.87,5.03ZM95.598,11.204Q94.572,11.294,94.572,10.556L94.572,8.558L92.142,10.196Q91.512,10.628,91.062,9.746Q90.63,8.846,91.278,8.468L94.572,6.506L94.572,2.888Q94.572,2.15,95.598,2.06Q96.642,1.952,96.642,2.69L96.642,10.358Q96.642,11.096,95.598,11.204ZM105.318,2.636Q106.056,2.582,106.686,2.834Q107.334,3.05,107.064,3.77Q106.344,6.272,103.95,8.144Q101.556,10.016,98.64,10.772Q97.92,10.97,97.362,10.142Q96.804,9.296,97.524,9.116Q99.018,8.81,100.674,8.054Q100.062,7.352,99.576,6.92Q99.054,6.47,99.81,5.948Q100.584,5.408,101.124,5.858Q101.718,6.308,102.402,7.046Q103.842,5.984,104.472,4.814Q104.652,4.544,104.31,4.562L100.314,4.922Q99.252,6.002,98.694,6.344Q98.064,6.794,97.416,6.074Q96.786,5.336,97.416,4.922Q97.938,4.616,98.964,3.572Q99.99,2.528,100.116,2.24Q100.512,1.574,101.52,1.826Q102.546,2.06,102.132,2.708L101.934,2.996L105.318,2.636ZM106.254,11.312Q106.992,11.24,106.992,12.176Q106.992,13.112,106.254,13.184L100.512,13.688Q102.204,15.938,106.74,15.794Q107.46,15.812,106.83,16.802Q106.2,17.81,105.462,17.792Q103.572,17.756,101.844,17.063Q100.116,16.37,99.234,15.146Q99.018,14.912,98.82,15.2Q98.19,16.352,96.462,17.378Q94.752,18.422,92.448,18.98Q91.728,19.16,91.206,18.314Q90.702,17.45,91.422,17.288Q93.564,16.82,95.04,15.992Q96.534,15.164,97.164,13.976L91.71,14.444Q90.972,14.516,90.972,13.58Q90.972,12.644,91.71,12.572L97.758,12.05L97.812,11.726Q97.902,10.97,99.018,10.871Q100.134,10.772,100.044,11.528L99.99,11.852L106.254,11.312ZM115.65,11.114Q116.118,11.618,115.488,12.536Q114.876,13.454,114.516,12.86L113.562,11.366L113.562,18.116Q113.562,18.854,112.536,18.944Q111.51,19.034,111.51,18.296L111.51,11.852Q110.502,14.696,109.836,15.506Q109.422,16.154,108.918,15.191Q108.414,14.228,108.864,13.616Q109.278,13.13,110.034,11.42Q110.79,9.692,111.24,7.964L109.602,8.108Q108.864,8.18,108.864,7.172Q108.864,6.164,109.602,6.092L111.51,5.93L111.51,2.978Q111.51,2.24,112.536,2.15Q113.562,2.06,113.562,2.798L113.562,5.75L115.164,5.606Q115.902,5.534,115.902,6.542Q115.902,7.55,115.164,7.622L113.562,7.766L113.562,8.864L115.65,11.114ZM123.228,14.966L123.336,15.524Q123.48,15.848,123.696,15.56L124.146,15.038Q124.2,13.85,124.2,13.436Q124.2,12.698,124.956,13.058Q125.73,13.436,125.712,14.174Q125.694,15.416,125.532,16.208Q125.244,17.648,123.84,17.774L122.85,17.864Q122.04,17.936,121.59,17.486Q121.32,17.234,121.212,16.775Q121.104,16.316,121.104,15.2L121.104,4.796Q121.104,4.454,120.762,4.49L119.196,4.616Q118.854,4.652,118.854,4.994L118.854,8.432Q118.854,15.362,116.352,17.9Q115.848,18.638,115.218,18.116L115.056,17.954L114.786,17.792Q114.192,17.414,114.624,16.784L115.596,15.362Q116.154,14.228,116.388,13.004Q116.622,11.762,116.694,10.79Q116.784,9.818,116.784,8.594L116.784,3.662Q116.784,2.798,117.648,2.726L122.364,2.312Q123.228,2.24,123.228,3.104L123.228,14.966ZM137.34,14.048Q136.836,13.562,137.754,13.013Q138.672,12.464,139.212,12.914Q139.86,13.382,140.976,14.588Q142.092,15.776,142.272,16.136Q142.686,16.73,141.732,17.378Q140.778,18.062,140.4,17.45Q140.472,17.486,139.896,16.766Q132.678,17.918,131.094,18.206Q129.528,18.494,129.618,18.53Q128.898,18.782,128.538,17.729Q128.178,16.676,128.844,16.334Q128.7,16.532,129.6,15.668Q130.482,14.93,131.976,12.986L128.358,13.292Q127.62,13.364,127.62,12.338Q127.62,11.294,128.358,11.222L141.768,10.052Q142.506,9.998,142.506,11.042Q142.506,12.068,141.768,12.122L134.946,12.716L132.12,15.938L138.384,15.038L137.34,14.048ZM132.03,7.424L138.222,6.884Q136.296,5.786,135.036,4.706Q133.83,6.02,132.03,7.424ZM134.46,2.294Q134.928,1.664,135.9,2.06Q136.89,2.438,136.44,3.032L136.278,3.248Q137.628,4.274,139.608,5.21Q141.588,6.11,142.83,6.38Q143.532,6.56,142.776,7.568Q142.02,8.576,141.336,8.342Q140.544,8.108,139.23,7.424L139.23,7.892Q139.23,8.756,138.366,8.846L131.688,9.422Q130.824,9.494,130.824,8.63L130.824,8.306Q129.258,9.332,128.736,9.602Q128.07,9.98,127.296,9.08Q126.54,8.198,127.224,7.874Q129.132,6.992,131.4,5.237Q133.668,3.482,134.46,2.294Z" fill="#1A2033" fill-opacity="1"/></g></g></svg>